<?xml version="1.0" encoding="UTF-8" standalone="no"?>
<!DOCTYPE svg PUBLIC "-//W3C//DTD SVG 1.1//EN"
 "http://www.w3.org/Graphics/SVG/1.1/DTD/svg11.dtd">
<!-- Generated by graphviz version 2.43.0 (0)
 -->
<!-- Title: app.kpi_ticket Pages: 1 -->
<svg width="796pt" height="101pt"
 viewBox="0.00 0.00 796.00 101.00" xmlns="http://www.w3.org/2000/svg" xmlns:xlink="http://www.w3.org/1999/xlink">
<g id="graph0" class="graph" transform="scale(1 1) rotate(0) translate(4 97)">
<title>app.kpi_ticket</title>
<!-- Node1 -->
<g id="Node000001" class="node">
<title>Node1</title>
<g id="a_Node000001"><a xlink:title="Mostra o custo médio por operação (ticket médio).">
<polygon fill="#999999" stroke="#666666" points="85,-56 0,-56 0,-37 85,-37 85,-56"/>
<text text-anchor="middle" x="42.5" y="-44" font-family="Helvetica,sans-Serif" font-size="10.00">app.kpi_ticket</text>
</a>
</g>
</g>
<!-- Node2 -->
<g id="Node000002" class="node">
<title>Node2</title>
<g id="a_Node000002"><a xlink:href="namespaceapp.html#a9b29ad1b664e81ea36570c3e5aa63d56" target="_top" xlink:title=" ">
<polygon fill="white" stroke="#666666" points="233,-56 121,-56 121,-37 233,-37 233,-56"/>
<text text-anchor="middle" x="177" y="-44" font-family="Helvetica,sans-Serif" font-size="10.00">app.dados_filtrados</text>
</a>
</g>
</g>
<!-- Node1&#45;&gt;Node2 -->
<g id="edge1_Node000001_Node000002" class="edge">
<title>Node1&#45;&gt;Node2</title>
<g id="a_edge1_Node000001_Node000002"><a xlink:title=" ">
<path fill="none" stroke="#63b8ff" d="M85.06,-46.5C93.24,-46.5 102.01,-46.5 110.76,-46.5"/>
<polygon fill="#63b8ff" stroke="#63b8ff" points="110.98,-50 120.98,-46.5 110.98,-43 110.98,-50"/>
</a>
</g>
</g>
<!-- Node3 -->
<g id="Node000003" class="node">
<title>Node3</title>
<g id="a_Node000003"><a xlink:href="namespaceapp.html#a6c0d0336cb013fd4aef718bf19d58dcb" target="_top" xlink:title=" ">
<polygon fill="white" stroke="#666666" points="336,-56 269,-56 269,-37 336,-37 336,-56"/>
<text text-anchor="middle" x="302.5" y="-44" font-family="Helvetica,sans-Serif" font-size="10.00">app.dados</text>
</a>
</g>
</g>
<!-- Node2&#45;&gt;Node3 -->
<g id="edge2_Node000002_Node000003" class="edge">
<title>Node2&#45;&gt;Node3</title>
<g id="a_edge2_Node000002_Node000003"><a xlink:title=" ">
<path fill="none" stroke="#63b8ff" d="M233.25,-46.5C241.83,-46.5 250.58,-46.5 258.82,-46.5"/>
<polygon fill="#63b8ff" stroke="#63b8ff" points="258.95,-50 268.95,-46.5 258.95,-43 258.95,-50"/>
</a>
</g>
</g>
<!-- Node4 -->
<g id="Node000004" class="node">
<title>Node4</title>
<g id="a_Node000004"><a xlink:href="namespaceapp.html#a8d16aaf8c5500c7a11a7d697c38de731" target="_top" xlink:title=" ">
<polygon fill="white" stroke="#666666" points="499,-93 372,-93 372,-74 499,-74 499,-93"/>
<text text-anchor="middle" x="435.5" y="-81" font-family="Helvetica,sans-Serif" font-size="10.00">app.aplicar_categorias</text>
</a>
</g>
</g>
<!-- Node3&#45;&gt;Node4 -->
<g id="edge3_Node000003_Node000004" class="edge">
<title>Node3&#45;&gt;Node4</title>
<g id="a_edge3_Node000003_Node000004"><a xlink:title=" ">
<path fill="none" stroke="#63b8ff" d="M336.22,-55.74C352.84,-60.44 373.27,-66.2 391.18,-71.26"/>
<polygon fill="#63b8ff" stroke="#63b8ff" points="390.26,-74.64 400.83,-73.99 392.16,-67.9 390.26,-74.64"/>
</a>
</g>
</g>
<!-- Node5 -->
<g id="Node000005" class="node">
<title>Node5</title>
<g id="a_Node000005"><a xlink:href="namespaceapp.html#a18e46ef6e58b9299bcc7c7d3d63368b1" target="_top" xlink:title=" ">
<polygon fill="white" stroke="#666666" points="487,-56 384,-56 384,-37 487,-37 487,-56"/>
<text text-anchor="middle" x="435.5" y="-44" font-family="Helvetica,sans-Serif" font-size="10.00">app.dados_brutos</text>
</a>
</g>
</g>
<!-- Node3&#45;&gt;Node5 -->
<g id="edge4_Node000003_Node000005" class="edge">
<title>Node3&#45;&gt;Node5</title>
<g id="a_edge4_Node000003_Node000005"><a xlink:title=" ">
<path fill="none" stroke="#63b8ff" d="M336.22,-46.5C347.58,-46.5 360.72,-46.5 373.61,-46.5"/>
<polygon fill="#63b8ff" stroke="#63b8ff" points="373.86,-50 383.86,-46.5 373.86,-43 373.86,-50"/>
</a>
</g>
</g>
<!-- Node8 -->
<g id="Node000008" class="node">
<title>Node8</title>
<g id="a_Node000008"><a xlink:href="namespaceapp.html#aceebba1402c6a66730e82c939dbd42d1" target="_top" xlink:title=" ">
<polygon fill="white" stroke="#666666" points="498,-19 373,-19 373,0 498,0 498,-19"/>
<text text-anchor="middle" x="435.5" y="-7" font-family="Helvetica,sans-Serif" font-size="10.00">app.regras_categorias</text>
</a>
</g>
</g>
<!-- Node3&#45;&gt;Node8 -->
<g id="edge7_Node000003_Node000008" class="edge">
<title>Node3&#45;&gt;Node8</title>
<g id="a_edge7_Node000003_Node000008"><a xlink:title=" ">
<path fill="none" stroke="#63b8ff" d="M336.22,-37.26C352.84,-32.56 373.27,-26.8 391.18,-21.74"/>
<polygon fill="#63b8ff" stroke="#63b8ff" points="392.16,-25.1 400.83,-19.01 390.26,-18.36 392.16,-25.1"/>
</a>
</g>
</g>
<!-- Node6 -->
<g id="Node000006" class="node">
<title>Node6</title>
<g id="a_Node000006"><a xlink:href="namespaceapp.html#addaec30611cceb35e3d34c83d2d2200d" target="_top" xlink:title="Lê um ficheiro PS2 e devolve um DataFrame com linhas de detalhe (Tipo 2).">
<polygon fill="white" stroke="#666666" points="642,-56 535,-56 535,-37 642,-37 642,-56"/>
<text text-anchor="middle" x="588.5" y="-44" font-family="Helvetica,sans-Serif" font-size="10.00">app.parse_ps2_file</text>
</a>
</g>
</g>
<!-- Node5&#45;&gt;Node6 -->
<g id="edge5_Node000005_Node000006" class="edge">
<title>Node5&#45;&gt;Node6</title>
<g id="a_edge5_Node000005_Node000006"><a xlink:title=" ">
<path fill="none" stroke="#63b8ff" d="M487.2,-46.5C499.18,-46.5 512.1,-46.5 524.55,-46.5"/>
<polygon fill="#63b8ff" stroke="#63b8ff" points="524.87,-50 534.87,-46.5 524.87,-43 524.87,-50"/>
</a>
</g>
</g>
<!-- Node7 -->
<g id="Node000007" class="node">
<title>Node7</title>
<g id="a_Node000007"><a xlink:href="namespaceapp.html#a979467ec3d7015ad0fdff74605b5cf7a" target="_top" xlink:title="Tenta ler o ficheiro com várias codificações.">
<polygon fill="white" stroke="#666666" points="788,-61.5 678,-61.5 678,-31.5 788,-31.5 788,-61.5"/>
<text text-anchor="start" x="686" y="-49.5" font-family="Helvetica,sans-Serif" font-size="10.00">app.read_text_with</text>
<text text-anchor="middle" x="733" y="-38.5" font-family="Helvetica,sans-Serif" font-size="10.00">_fallback</text>
</a>
</g>
</g>
<!-- Node6&#45;&gt;Node7 -->
<g id="edge6_Node000006_Node000007" class="edge">
<title>Node6&#45;&gt;Node7</title>
<g id="a_edge6_Node000006_Node000007"><a xlink:title=" ">
<path fill="none" stroke="#63b8ff" d="M642.16,-46.5C650.39,-46.5 658.97,-46.5 667.43,-46.5"/>
<polygon fill="#63b8ff" stroke="#63b8ff" points="667.65,-50 677.65,-46.5 667.65,-43 667.65,-50"/>
</a>
</g>
</g>
</g>
</svg>
