<?xml version="1.0" encoding="UTF-8" standalone="no"?>
<!DOCTYPE svg PUBLIC "-//W3C//DTD SVG 1.1//EN"
 "http://www.w3.org/Graphics/SVG/1.1/DTD/svg11.dtd">
<!-- Generated by graphviz version 2.43.0 (0)
 -->
<!-- Title: app.kpi_ops Pages: 1 -->
<svg width="786pt" height="101pt"
 viewBox="0.00 0.00 786.00 101.00" xmlns="http://www.w3.org/2000/svg" xmlns:xlink="http://www.w3.org/1999/xlink">
<g id="graph0" class="graph" transform="scale(1 1) rotate(0) translate(4 97)">
<title>app.kpi_ops</title>
<!-- Node1 -->
<g id="Node000001" class="node">
<title>Node1</title>
<g id="a_Node000001"><a xlink:title="Mostra o número de operações no período/filters aplicados.">
<polygon fill="#999999" stroke="#666666" points="75,-56 0,-56 0,-37 75,-37 75,-56"/>
<text text-anchor="middle" x="37.5" y="-44" font-family="Helvetica,sans-Serif" font-size="10.00">app.kpi_ops</text>
</a>
</g>
</g>
<!-- Node2 -->
<g id="Node000002" class="node">
<title>Node2</title>
<g id="a_Node000002"><a xlink:href="namespaceapp.html#a9b29ad1b664e81ea36570c3e5aa63d56" target="_top" xlink:title=" ">
<polygon fill="white" stroke="#666666" points="223,-56 111,-56 111,-37 223,-37 223,-56"/>
<text text-anchor="middle" x="167" y="-44" font-family="Helvetica,sans-Serif" font-size="10.00">app.dados_filtrados</text>
</a>
</g>
</g>
<!-- Node1&#45;&gt;Node2 -->
<g id="edge1_Node000001_Node000002" class="edge">
<title>Node1&#45;&gt;Node2</title>
<g id="a_edge1_Node000001_Node000002"><a xlink:title=" ">
<path fill="none" stroke="#63b8ff" d="M75.04,-46.5C83.16,-46.5 92.02,-46.5 100.9,-46.5"/>
<polygon fill="#63b8ff" stroke="#63b8ff" points="100.92,-50 110.92,-46.5 100.92,-43 100.92,-50"/>
</a>
</g>
</g>
<!-- Node3 -->
<g id="Node000003" class="node">
<title>Node3</title>
<g id="a_Node000003"><a xlink:href="namespaceapp.html#a6c0d0336cb013fd4aef718bf19d58dcb" target="_top" xlink:title=" ">
<polygon fill="white" stroke="#666666" points="326,-56 259,-56 259,-37 326,-37 326,-56"/>
<text text-anchor="middle" x="292.5" y="-44" font-family="Helvetica,sans-Serif" font-size="10.00">app.dados</text>
</a>
</g>
</g>
<!-- Node2&#45;&gt;Node3 -->
<g id="edge2_Node000002_Node000003" class="edge">
<title>Node2&#45;&gt;Node3</title>
<g id="a_edge2_Node000002_Node000003"><a xlink:title=" ">
<path fill="none" stroke="#63b8ff" d="M223.25,-46.5C231.83,-46.5 240.58,-46.5 248.82,-46.5"/>
<polygon fill="#63b8ff" stroke="#63b8ff" points="248.95,-50 258.95,-46.5 248.95,-43 248.95,-50"/>
</a>
</g>
</g>
<!-- Node4 -->
<g id="Node000004" class="node">
<title>Node4</title>
<g id="a_Node000004"><a xlink:href="namespaceapp.html#a8d16aaf8c5500c7a11a7d697c38de731" target="_top" xlink:title=" ">
<polygon fill="white" stroke="#666666" points="489,-93 362,-93 362,-74 489,-74 489,-93"/>
<text text-anchor="middle" x="425.5" y="-81" font-family="Helvetica,sans-Serif" font-size="10.00">app.aplicar_categorias</text>
</a>
</g>
</g>
<!-- Node3&#45;&gt;Node4 -->
<g id="edge3_Node000003_Node000004" class="edge">
<title>Node3&#45;&gt;Node4</title>
<g id="a_edge3_Node000003_Node000004"><a xlink:title=" ">
<path fill="none" stroke="#63b8ff" d="M326.22,-55.74C342.84,-60.44 363.27,-66.2 381.18,-71.26"/>
<polygon fill="#63b8ff" stroke="#63b8ff" points="380.26,-74.64 390.83,-73.99 382.16,-67.9 380.26,-74.64"/>
</a>
</g>
</g>
<!-- Node5 -->
<g id="Node000005" class="node">
<title>Node5</title>
<g id="a_Node000005"><a xlink:href="namespaceapp.html#a18e46ef6e58b9299bcc7c7d3d63368b1" target="_top" xlink:title=" ">
<polygon fill="white" stroke="#666666" points="477,-56 374,-56 374,-37 477,-37 477,-56"/>
<text text-anchor="middle" x="425.5" y="-44" font-family="Helvetica,sans-Serif" font-size="10.00">app.dados_brutos</text>
</a>
</g>
</g>
<!-- Node3&#45;&gt;Node5 -->
<g id="edge4_Node000003_Node000005" class="edge">
<title>Node3&#45;&gt;Node5</title>
<g id="a_edge4_Node000003_Node000005"><a xlink:title=" ">
<path fill="none" stroke="#63b8ff" d="M326.22,-46.5C337.58,-46.5 350.72,-46.5 363.61,-46.5"/>
<polygon fill="#63b8ff" stroke="#63b8ff" points="363.86,-50 373.86,-46.5 363.86,-43 363.86,-50"/>
</a>
</g>
</g>
<!-- Node8 -->
<g id="Node000008" class="node">
<title>Node8</title>
<g id="a_Node000008"><a xlink:href="namespaceapp.html#aceebba1402c6a66730e82c939dbd42d1" target="_top" xlink:title=" ">
<polygon fill="white" stroke="#666666" points="488,-19 363,-19 363,0 488,0 488,-19"/>
<text text-anchor="middle" x="425.5" y="-7" font-family="Helvetica,sans-Serif" font-size="10.00">app.regras_categorias</text>
</a>
</g>
</g>
<!-- Node3&#45;&gt;Node8 -->
<g id="edge7_Node000003_Node000008" class="edge">
<title>Node3&#45;&gt;Node8</title>
<g id="a_edge7_Node000003_Node000008"><a xlink:title=" ">
<path fill="none" stroke="#63b8ff" d="M326.22,-37.26C342.84,-32.56 363.27,-26.8 381.18,-21.74"/>
<polygon fill="#63b8ff" stroke="#63b8ff" points="382.16,-25.1 390.83,-19.01 380.26,-18.36 382.16,-25.1"/>
</a>
</g>
</g>
<!-- Node6 -->
<g id="Node000006" class="node">
<title>Node6</title>
<g id="a_Node000006"><a xlink:href="namespaceapp.html#addaec30611cceb35e3d34c83d2d2200d" target="_top" xlink:title="Lê um ficheiro PS2 e devolve um DataFrame com linhas de detalhe (Tipo 2).">
<polygon fill="white" stroke="#666666" points="632,-56 525,-56 525,-37 632,-37 632,-56"/>
<text text-anchor="middle" x="578.5" y="-44" font-family="Helvetica,sans-Serif" font-size="10.00">app.parse_ps2_file</text>
</a>
</g>
</g>
<!-- Node5&#45;&gt;Node6 -->
<g id="edge5_Node000005_Node000006" class="edge">
<title>Node5&#45;&gt;Node6</title>
<g id="a_edge5_Node000005_Node000006"><a xlink:title=" ">
<path fill="none" stroke="#63b8ff" d="M477.2,-46.5C489.18,-46.5 502.1,-46.5 514.55,-46.5"/>
<polygon fill="#63b8ff" stroke="#63b8ff" points="514.87,-50 524.87,-46.5 514.87,-43 514.87,-50"/>
</a>
</g>
</g>
<!-- Node7 -->
<g id="Node000007" class="node">
<title>Node7</title>
<g id="a_Node000007"><a xlink:href="namespaceapp.html#a979467ec3d7015ad0fdff74605b5cf7a" target="_top" xlink:title="Tenta ler o ficheiro com várias codificações.">
<polygon fill="white" stroke="#666666" points="778,-61.5 668,-61.5 668,-31.5 778,-31.5 778,-61.5"/>
<text text-anchor="start" x="676" y="-49.5" font-family="Helvetica,sans-Serif" font-size="10.00">app.read_text_with</text>
<text text-anchor="middle" x="723" y="-38.5" font-family="Helvetica,sans-Serif" font-size="10.00">_fallback</text>
</a>
</g>
</g>
<!-- Node6&#45;&gt;Node7 -->
<g id="edge6_Node000006_Node000007" class="edge">
<title>Node6&#45;&gt;Node7</title>
<g id="a_edge6_Node000006_Node000007"><a xlink:title=" ">
<path fill="none" stroke="#63b8ff" d="M632.16,-46.5C640.39,-46.5 648.97,-46.5 657.43,-46.5"/>
<polygon fill="#63b8ff" stroke="#63b8ff" points="657.65,-50 667.65,-46.5 657.65,-43 657.65,-50"/>
</a>
</g>
</g>
</g>
</svg>
