<?xml version="1.0" encoding="UTF-8" standalone="no"?>
<!DOCTYPE svg PUBLIC "-//W3C//DTD SVG 1.1//EN"
 "http://www.w3.org/Graphics/SVG/1.1/DTD/svg11.dtd">
<!-- Generated by graphviz version 2.43.0 (0)
 -->
<!-- Title: app.dados_filtrados Pages: 1 -->
<svg width="257pt" height="249pt"
 viewBox="0.00 0.00 257.00 249.00" xmlns="http://www.w3.org/2000/svg" xmlns:xlink="http://www.w3.org/1999/xlink">
<g id="graph0" class="graph" transform="scale(1 1) rotate(0) translate(4 245)">
<title>app.dados_filtrados</title>
<!-- Node1 -->
<g id="Node000001" class="node">
<title>Node1</title>
<g id="a_Node000001"><a xlink:title=" ">
<polygon fill="#999999" stroke="#666666" points="249,-130 137,-130 137,-111 249,-111 249,-130"/>
<text text-anchor="middle" x="193" y="-118" font-family="Helvetica,sans-Serif" font-size="10.00">app.dados_filtrados</text>
</a>
</g>
</g>
<!-- Node2 -->
<g id="Node000002" class="node">
<title>Node2</title>
<g id="a_Node000002"><a xlink:href="namespaceapp.html#a963b46203ba73807296baac4d740c0f6" target="_top" xlink:title="Gráfico de linhas por cliente (Top&#45;N).">
<polygon fill="white" stroke="#666666" points="101,-241 0,-241 0,-222 101,-222 101,-241"/>
<text text-anchor="middle" x="50.5" y="-229" font-family="Helvetica,sans-Serif" font-size="10.00">app.graf_clientes</text>
</a>
</g>
</g>
<!-- Node1&#45;&gt;Node2 -->
<g id="edge1_Node000001_Node000002" class="edge">
<title>Node1&#45;&gt;Node2</title>
<g id="a_edge1_Node000001_Node000002"><a xlink:title=" ">
<path fill="none" stroke="#63b8ff" d="M178.95,-137.98C162.73,-158.61 133.23,-192.73 101,-213.5 95.85,-216.82 90.01,-219.63 84.18,-221.98"/>
<polygon fill="#63b8ff" stroke="#63b8ff" points="181.73,-140.1 185.05,-130.04 176.18,-135.84 181.73,-140.1"/>
</a>
</g>
</g>
<!-- Node3 -->
<g id="Node000003" class="node">
<title>Node3</title>
<g id="a_Node000003"><a xlink:href="namespaceapp.html#afea4e09126d48a522a8ce4c3d8412c07" target="_top" xlink:title="Gráfico de barras: total por entidade.">
<polygon fill="white" stroke="#666666" points="89.5,-204 11.5,-204 11.5,-185 89.5,-185 89.5,-204"/>
<text text-anchor="middle" x="50.5" y="-192" font-family="Helvetica,sans-Serif" font-size="10.00">app.graf_ent</text>
</a>
</g>
</g>
<!-- Node1&#45;&gt;Node3 -->
<g id="edge2_Node000001_Node000003" class="edge">
<title>Node1&#45;&gt;Node3</title>
<g id="a_edge2_Node000001_Node000003"><a xlink:title=" ">
<path fill="none" stroke="#63b8ff" d="M169.71,-135.99C151.72,-148.05 125.46,-164.68 101,-176.5 94.58,-179.6 87.47,-182.49 80.7,-185"/>
<polygon fill="#63b8ff" stroke="#63b8ff" points="172.01,-138.66 178.32,-130.15 168.08,-132.87 172.01,-138.66"/>
</a>
</g>
</g>
<!-- Node4 -->
<g id="Node000004" class="node">
<title>Node4</title>
<g id="a_Node000004"><a xlink:href="namespaceapp.html#a73fc501f69ddd06ee7b1a5cb0c7bccea" target="_top" xlink:title="Gráfico de linha: evolução mensal (total).">
<polygon fill="white" stroke="#666666" points="92,-167 9,-167 9,-148 92,-148 92,-167"/>
<text text-anchor="middle" x="50.5" y="-155" font-family="Helvetica,sans-Serif" font-size="10.00">app.graf_mes</text>
</a>
</g>
</g>
<!-- Node1&#45;&gt;Node4 -->
<g id="edge3_Node000001_Node000004" class="edge">
<title>Node1&#45;&gt;Node4</title>
<g id="a_edge3_Node000001_Node000004"><a xlink:title=" ">
<path fill="none" stroke="#63b8ff" d="M145.98,-132.62C127.18,-137.57 105.74,-143.22 88.05,-147.88"/>
<polygon fill="#63b8ff" stroke="#63b8ff" points="147.04,-135.96 155.82,-130.03 145.26,-129.19 147.04,-135.96"/>
</a>
</g>
</g>
<!-- Node5 -->
<g id="Node000005" class="node">
<title>Node5</title>
<g id="a_Node000005"><a xlink:href="namespaceapp.html#af5f9985e000218860030d03f0a0ba981" target="_top" xlink:title="Mostra o número de operações no período/filters aplicados.">
<polygon fill="white" stroke="#666666" points="88,-130 13,-130 13,-111 88,-111 88,-130"/>
<text text-anchor="middle" x="50.5" y="-118" font-family="Helvetica,sans-Serif" font-size="10.00">app.kpi_ops</text>
</a>
</g>
</g>
<!-- Node1&#45;&gt;Node5 -->
<g id="edge4_Node000001_Node000005" class="edge">
<title>Node1&#45;&gt;Node5</title>
<g id="a_edge4_Node000001_Node000005"><a xlink:title=" ">
<path fill="none" stroke="#63b8ff" d="M126.83,-120.5C113.6,-120.5 100.12,-120.5 88.3,-120.5"/>
<polygon fill="#63b8ff" stroke="#63b8ff" points="126.87,-124 136.87,-120.5 126.87,-117 126.87,-124"/>
</a>
</g>
</g>
<!-- Node6 -->
<g id="Node000006" class="node">
<title>Node6</title>
<g id="a_Node000006"><a xlink:href="namespaceapp.html#a4c6aa2acdafd987e9b6a4ff53e69f71b" target="_top" xlink:title="Mostra o custo médio por operação (ticket médio).">
<polygon fill="white" stroke="#666666" points="93,-93 8,-93 8,-74 93,-74 93,-93"/>
<text text-anchor="middle" x="50.5" y="-81" font-family="Helvetica,sans-Serif" font-size="10.00">app.kpi_ticket</text>
</a>
</g>
</g>
<!-- Node1&#45;&gt;Node6 -->
<g id="edge5_Node000001_Node000006" class="edge">
<title>Node1&#45;&gt;Node6</title>
<g id="a_edge5_Node000001_Node000006"><a xlink:title=" ">
<path fill="none" stroke="#63b8ff" d="M145.98,-108.38C127.18,-103.43 105.74,-97.78 88.05,-93.12"/>
<polygon fill="#63b8ff" stroke="#63b8ff" points="145.26,-111.81 155.82,-110.97 147.04,-105.04 145.26,-111.81"/>
</a>
</g>
</g>
<!-- Node7 -->
<g id="Node000007" class="node">
<title>Node7</title>
<g id="a_Node000007"><a xlink:href="namespaceapp.html#a0d956cb58e86086b4dff0fb1ba8a90f3" target="_top" xlink:title="Mostra o total (€) no período/filters aplicados.">
<polygon fill="white" stroke="#666666" points="90.5,-56 10.5,-56 10.5,-37 90.5,-37 90.5,-56"/>
<text text-anchor="middle" x="50.5" y="-44" font-family="Helvetica,sans-Serif" font-size="10.00">app.kpi_total</text>
</a>
</g>
</g>
<!-- Node1&#45;&gt;Node7 -->
<g id="edge6_Node000001_Node000007" class="edge">
<title>Node1&#45;&gt;Node7</title>
<g id="a_edge6_Node000001_Node000007"><a xlink:title=" ">
<path fill="none" stroke="#63b8ff" d="M169.3,-105.23C151.27,-93.48 125.15,-77.31 101,-65.5 93.97,-62.06 86.15,-58.81 78.85,-56"/>
<polygon fill="#63b8ff" stroke="#63b8ff" points="167.67,-108.35 177.94,-110.92 171.52,-102.5 167.67,-108.35"/>
</a>
</g>
</g>
<!-- Node8 -->
<g id="Node000008" class="node">
<title>Node8</title>
<g id="a_Node000008"><a xlink:href="namespaceapp.html#a7aa4abbb740d6d7e9cd94d42102912cb" target="_top" xlink:title="Tabela detalhada com colunas formatadas e validação.">
<polygon fill="white" stroke="#666666" points="84.5,-19 16.5,-19 16.5,0 84.5,0 84.5,-19"/>
<text text-anchor="middle" x="50.5" y="-7" font-family="Helvetica,sans-Serif" font-size="10.00">app.tabela</text>
</a>
</g>
</g>
<!-- Node1&#45;&gt;Node8 -->
<g id="edge7_Node000001_Node000008" class="edge">
<title>Node1&#45;&gt;Node8</title>
<g id="a_edge7_Node000001_Node000008"><a xlink:title=" ">
<path fill="none" stroke="#63b8ff" d="M178.37,-102.72C161.96,-82.36 132.62,-49.16 101,-28.5 95.3,-24.77 88.76,-21.62 82.34,-19.01"/>
<polygon fill="#63b8ff" stroke="#63b8ff" points="175.83,-105.15 184.77,-110.84 181.33,-100.82 175.83,-105.15"/>
</a>
</g>
</g>
</g>
</svg>
