<?xml version="1.0" encoding="UTF-8" standalone="no"?>
<!DOCTYPE svg PUBLIC "-//W3C//DTD SVG 1.1//EN"
 "http://www.w3.org/Graphics/SVG/1.1/DTD/svg11.dtd">
<!-- Generated by graphviz version 2.43.0 (0)
 -->
<!-- Title: app.graf_ent Pages: 1 -->
<svg width="789pt" height="101pt"
 viewBox="0.00 0.00 789.00 101.00" xmlns="http://www.w3.org/2000/svg" xmlns:xlink="http://www.w3.org/1999/xlink">
<g id="graph0" class="graph" transform="scale(1 1) rotate(0) translate(4 97)">
<title>app.graf_ent</title>
<!-- Node1 -->
<g id="Node000001" class="node">
<title>Node1</title>
<g id="a_Node000001"><a xlink:title="Gráfico de barras: total por entidade.">
<polygon fill="#999999" stroke="#666666" points="78,-56 0,-56 0,-37 78,-37 78,-56"/>
<text text-anchor="middle" x="39" y="-44" font-family="Helvetica,sans-Serif" font-size="10.00">app.graf_ent</text>
</a>
</g>
</g>
<!-- Node2 -->
<g id="Node000002" class="node">
<title>Node2</title>
<g id="a_Node000002"><a xlink:href="namespaceapp.html#a9b29ad1b664e81ea36570c3e5aa63d56" target="_top" xlink:title=" ">
<polygon fill="white" stroke="#666666" points="226,-56 114,-56 114,-37 226,-37 226,-56"/>
<text text-anchor="middle" x="170" y="-44" font-family="Helvetica,sans-Serif" font-size="10.00">app.dados_filtrados</text>
</a>
</g>
</g>
<!-- Node1&#45;&gt;Node2 -->
<g id="edge1_Node000001_Node000002" class="edge">
<title>Node1&#45;&gt;Node2</title>
<g id="a_edge1_Node000001_Node000002"><a xlink:title=" ">
<path fill="none" stroke="#63b8ff" d="M78.01,-46.5C86.02,-46.5 94.69,-46.5 103.39,-46.5"/>
<polygon fill="#63b8ff" stroke="#63b8ff" points="103.58,-50 113.58,-46.5 103.58,-43 103.58,-50"/>
</a>
</g>
</g>
<!-- Node3 -->
<g id="Node000003" class="node">
<title>Node3</title>
<g id="a_Node000003"><a xlink:href="namespaceapp.html#a6c0d0336cb013fd4aef718bf19d58dcb" target="_top" xlink:title=" ">
<polygon fill="white" stroke="#666666" points="329,-56 262,-56 262,-37 329,-37 329,-56"/>
<text text-anchor="middle" x="295.5" y="-44" font-family="Helvetica,sans-Serif" font-size="10.00">app.dados</text>
</a>
</g>
</g>
<!-- Node2&#45;&gt;Node3 -->
<g id="edge2_Node000002_Node000003" class="edge">
<title>Node2&#45;&gt;Node3</title>
<g id="a_edge2_Node000002_Node000003"><a xlink:title=" ">
<path fill="none" stroke="#63b8ff" d="M226.25,-46.5C234.83,-46.5 243.58,-46.5 251.82,-46.5"/>
<polygon fill="#63b8ff" stroke="#63b8ff" points="251.95,-50 261.95,-46.5 251.95,-43 251.95,-50"/>
</a>
</g>
</g>
<!-- Node4 -->
<g id="Node000004" class="node">
<title>Node4</title>
<g id="a_Node000004"><a xlink:href="namespaceapp.html#a8d16aaf8c5500c7a11a7d697c38de731" target="_top" xlink:title=" ">
<polygon fill="white" stroke="#666666" points="492,-93 365,-93 365,-74 492,-74 492,-93"/>
<text text-anchor="middle" x="428.5" y="-81" font-family="Helvetica,sans-Serif" font-size="10.00">app.aplicar_categorias</text>
</a>
</g>
</g>
<!-- Node3&#45;&gt;Node4 -->
<g id="edge3_Node000003_Node000004" class="edge">
<title>Node3&#45;&gt;Node4</title>
<g id="a_edge3_Node000003_Node000004"><a xlink:title=" ">
<path fill="none" stroke="#63b8ff" d="M329.22,-55.74C345.84,-60.44 366.27,-66.2 384.18,-71.26"/>
<polygon fill="#63b8ff" stroke="#63b8ff" points="383.26,-74.64 393.83,-73.99 385.16,-67.9 383.26,-74.64"/>
</a>
</g>
</g>
<!-- Node5 -->
<g id="Node000005" class="node">
<title>Node5</title>
<g id="a_Node000005"><a xlink:href="namespaceapp.html#a18e46ef6e58b9299bcc7c7d3d63368b1" target="_top" xlink:title=" ">
<polygon fill="white" stroke="#666666" points="480,-56 377,-56 377,-37 480,-37 480,-56"/>
<text text-anchor="middle" x="428.5" y="-44" font-family="Helvetica,sans-Serif" font-size="10.00">app.dados_brutos</text>
</a>
</g>
</g>
<!-- Node3&#45;&gt;Node5 -->
<g id="edge4_Node000003_Node000005" class="edge">
<title>Node3&#45;&gt;Node5</title>
<g id="a_edge4_Node000003_Node000005"><a xlink:title=" ">
<path fill="none" stroke="#63b8ff" d="M329.22,-46.5C340.58,-46.5 353.72,-46.5 366.61,-46.5"/>
<polygon fill="#63b8ff" stroke="#63b8ff" points="366.86,-50 376.86,-46.5 366.86,-43 366.86,-50"/>
</a>
</g>
</g>
<!-- Node8 -->
<g id="Node000008" class="node">
<title>Node8</title>
<g id="a_Node000008"><a xlink:href="namespaceapp.html#aceebba1402c6a66730e82c939dbd42d1" target="_top" xlink:title=" ">
<polygon fill="white" stroke="#666666" points="491,-19 366,-19 366,0 491,0 491,-19"/>
<text text-anchor="middle" x="428.5" y="-7" font-family="Helvetica,sans-Serif" font-size="10.00">app.regras_categorias</text>
</a>
</g>
</g>
<!-- Node3&#45;&gt;Node8 -->
<g id="edge7_Node000003_Node000008" class="edge">
<title>Node3&#45;&gt;Node8</title>
<g id="a_edge7_Node000003_Node000008"><a xlink:title=" ">
<path fill="none" stroke="#63b8ff" d="M329.22,-37.26C345.84,-32.56 366.27,-26.8 384.18,-21.74"/>
<polygon fill="#63b8ff" stroke="#63b8ff" points="385.16,-25.1 393.83,-19.01 383.26,-18.36 385.16,-25.1"/>
</a>
</g>
</g>
<!-- Node6 -->
<g id="Node000006" class="node">
<title>Node6</title>
<g id="a_Node000006"><a xlink:href="namespaceapp.html#addaec30611cceb35e3d34c83d2d2200d" target="_top" xlink:title="Lê um ficheiro PS2 e devolve um DataFrame com linhas de detalhe (Tipo 2).">
<polygon fill="white" stroke="#666666" points="635,-56 528,-56 528,-37 635,-37 635,-56"/>
<text text-anchor="middle" x="581.5" y="-44" font-family="Helvetica,sans-Serif" font-size="10.00">app.parse_ps2_file</text>
</a>
</g>
</g>
<!-- Node5&#45;&gt;Node6 -->
<g id="edge5_Node000005_Node000006" class="edge">
<title>Node5&#45;&gt;Node6</title>
<g id="a_edge5_Node000005_Node000006"><a xlink:title=" ">
<path fill="none" stroke="#63b8ff" d="M480.2,-46.5C492.18,-46.5 505.1,-46.5 517.55,-46.5"/>
<polygon fill="#63b8ff" stroke="#63b8ff" points="517.87,-50 527.87,-46.5 517.87,-43 517.87,-50"/>
</a>
</g>
</g>
<!-- Node7 -->
<g id="Node000007" class="node">
<title>Node7</title>
<g id="a_Node000007"><a xlink:href="namespaceapp.html#a979467ec3d7015ad0fdff74605b5cf7a" target="_top" xlink:title="Tenta ler o ficheiro com várias codificações.">
<polygon fill="white" stroke="#666666" points="781,-61.5 671,-61.5 671,-31.5 781,-31.5 781,-61.5"/>
<text text-anchor="start" x="679" y="-49.5" font-family="Helvetica,sans-Serif" font-size="10.00">app.read_text_with</text>
<text text-anchor="middle" x="726" y="-38.5" font-family="Helvetica,sans-Serif" font-size="10.00">_fallback</text>
</a>
</g>
</g>
<!-- Node6&#45;&gt;Node7 -->
<g id="edge6_Node000006_Node000007" class="edge">
<title>Node6&#45;&gt;Node7</title>
<g id="a_edge6_Node000006_Node000007"><a xlink:title=" ">
<path fill="none" stroke="#63b8ff" d="M635.16,-46.5C643.39,-46.5 651.97,-46.5 660.43,-46.5"/>
<polygon fill="#63b8ff" stroke="#63b8ff" points="660.65,-50 670.65,-46.5 660.65,-43 660.65,-50"/>
</a>
</g>
</g>
</g>
</svg>
