<?xml version="1.0" encoding="UTF-8" standalone="no"?>
<!DOCTYPE svg PUBLIC "-//W3C//DTD SVG 1.1//EN"
 "http://www.w3.org/Graphics/SVG/1.1/DTD/svg11.dtd">
<!-- Generated by graphviz version 2.43.0 (0)
 -->
<!-- Title: app.dados Pages: 1 -->
<svg width="527pt" height="101pt"
 viewBox="0.00 0.00 527.00 101.00" xmlns="http://www.w3.org/2000/svg" xmlns:xlink="http://www.w3.org/1999/xlink">
<g id="graph0" class="graph" transform="scale(1 1) rotate(0) translate(4 97)">
<title>app.dados</title>
<!-- Node1 -->
<g id="Node000001" class="node">
<title>Node1</title>
<g id="a_Node000001"><a xlink:title=" ">
<polygon fill="#999999" stroke="#666666" points="67,-56 0,-56 0,-37 67,-37 67,-56"/>
<text text-anchor="middle" x="33.5" y="-44" font-family="Helvetica,sans-Serif" font-size="10.00">app.dados</text>
</a>
</g>
</g>
<!-- Node2 -->
<g id="Node000002" class="node">
<title>Node2</title>
<g id="a_Node000002"><a xlink:href="namespaceapp.html#a8d16aaf8c5500c7a11a7d697c38de731" target="_top" xlink:title=" ">
<polygon fill="white" stroke="#666666" points="230,-93 103,-93 103,-74 230,-74 230,-93"/>
<text text-anchor="middle" x="166.5" y="-81" font-family="Helvetica,sans-Serif" font-size="10.00">app.aplicar_categorias</text>
</a>
</g>
</g>
<!-- Node1&#45;&gt;Node2 -->
<g id="edge1_Node000001_Node000002" class="edge">
<title>Node1&#45;&gt;Node2</title>
<g id="a_edge1_Node000001_Node000002"><a xlink:title=" ">
<path fill="none" stroke="#63b8ff" d="M67.22,-55.74C83.84,-60.44 104.27,-66.2 122.18,-71.26"/>
<polygon fill="#63b8ff" stroke="#63b8ff" points="121.26,-74.64 131.83,-73.99 123.16,-67.9 121.26,-74.64"/>
</a>
</g>
</g>
<!-- Node3 -->
<g id="Node000003" class="node">
<title>Node3</title>
<g id="a_Node000003"><a xlink:href="namespaceapp.html#a18e46ef6e58b9299bcc7c7d3d63368b1" target="_top" xlink:title=" ">
<polygon fill="white" stroke="#666666" points="218,-56 115,-56 115,-37 218,-37 218,-56"/>
<text text-anchor="middle" x="166.5" y="-44" font-family="Helvetica,sans-Serif" font-size="10.00">app.dados_brutos</text>
</a>
</g>
</g>
<!-- Node1&#45;&gt;Node3 -->
<g id="edge2_Node000001_Node000003" class="edge">
<title>Node1&#45;&gt;Node3</title>
<g id="a_edge2_Node000001_Node000003"><a xlink:title=" ">
<path fill="none" stroke="#63b8ff" d="M67.22,-46.5C78.58,-46.5 91.72,-46.5 104.61,-46.5"/>
<polygon fill="#63b8ff" stroke="#63b8ff" points="104.86,-50 114.86,-46.5 104.86,-43 104.86,-50"/>
</a>
</g>
</g>
<!-- Node6 -->
<g id="Node000006" class="node">
<title>Node6</title>
<g id="a_Node000006"><a xlink:href="namespaceapp.html#aceebba1402c6a66730e82c939dbd42d1" target="_top" xlink:title=" ">
<polygon fill="white" stroke="#666666" points="229,-19 104,-19 104,0 229,0 229,-19"/>
<text text-anchor="middle" x="166.5" y="-7" font-family="Helvetica,sans-Serif" font-size="10.00">app.regras_categorias</text>
</a>
</g>
</g>
<!-- Node1&#45;&gt;Node6 -->
<g id="edge5_Node000001_Node000006" class="edge">
<title>Node1&#45;&gt;Node6</title>
<g id="a_edge5_Node000001_Node000006"><a xlink:title=" ">
<path fill="none" stroke="#63b8ff" d="M67.22,-37.26C83.84,-32.56 104.27,-26.8 122.18,-21.74"/>
<polygon fill="#63b8ff" stroke="#63b8ff" points="123.16,-25.1 131.83,-19.01 121.26,-18.36 123.16,-25.1"/>
</a>
</g>
</g>
<!-- Node4 -->
<g id="Node000004" class="node">
<title>Node4</title>
<g id="a_Node000004"><a xlink:href="namespaceapp.html#addaec30611cceb35e3d34c83d2d2200d" target="_top" xlink:title="Lê um ficheiro PS2 e devolve um DataFrame com linhas de detalhe (Tipo 2).">
<polygon fill="white" stroke="#666666" points="373,-56 266,-56 266,-37 373,-37 373,-56"/>
<text text-anchor="middle" x="319.5" y="-44" font-family="Helvetica,sans-Serif" font-size="10.00">app.parse_ps2_file</text>
</a>
</g>
</g>
<!-- Node3&#45;&gt;Node4 -->
<g id="edge3_Node000003_Node000004" class="edge">
<title>Node3&#45;&gt;Node4</title>
<g id="a_edge3_Node000003_Node000004"><a xlink:title=" ">
<path fill="none" stroke="#63b8ff" d="M218.2,-46.5C230.18,-46.5 243.1,-46.5 255.55,-46.5"/>
<polygon fill="#63b8ff" stroke="#63b8ff" points="255.87,-50 265.87,-46.5 255.87,-43 255.87,-50"/>
</a>
</g>
</g>
<!-- Node5 -->
<g id="Node000005" class="node">
<title>Node5</title>
<g id="a_Node000005"><a xlink:href="namespaceapp.html#a979467ec3d7015ad0fdff74605b5cf7a" target="_top" xlink:title="Tenta ler o ficheiro com várias codificações.">
<polygon fill="white" stroke="#666666" points="519,-61.5 409,-61.5 409,-31.5 519,-31.5 519,-61.5"/>
<text text-anchor="start" x="417" y="-49.5" font-family="Helvetica,sans-Serif" font-size="10.00">app.read_text_with</text>
<text text-anchor="middle" x="464" y="-38.5" font-family="Helvetica,sans-Serif" font-size="10.00">_fallback</text>
</a>
</g>
</g>
<!-- Node4&#45;&gt;Node5 -->
<g id="edge4_Node000004_Node000005" class="edge">
<title>Node4&#45;&gt;Node5</title>
<g id="a_edge4_Node000004_Node000005"><a xlink:title=" ">
<path fill="none" stroke="#63b8ff" d="M373.16,-46.5C381.39,-46.5 389.97,-46.5 398.43,-46.5"/>
<polygon fill="#63b8ff" stroke="#63b8ff" points="398.65,-50 408.65,-46.5 398.65,-43 398.65,-50"/>
</a>
</g>
</g>
</g>
</svg>
