<?xml version="1.0" encoding="UTF-8" standalone="no"?>
<!DOCTYPE svg PUBLIC "-//W3C//DTD SVG 1.1//EN"
 "http://www.w3.org/Graphics/SVG/1.1/DTD/svg11.dtd">
<!-- Generated by graphviz version 2.43.0 (0)
 -->
<!-- Title: app.graf_mes Pages: 1 -->
<svg width="794pt" height="101pt"
 viewBox="0.00 0.00 794.00 101.00" xmlns="http://www.w3.org/2000/svg" xmlns:xlink="http://www.w3.org/1999/xlink">
<g id="graph0" class="graph" transform="scale(1 1) rotate(0) translate(4 97)">
<title>app.graf_mes</title>
<!-- Node1 -->
<g id="Node000001" class="node">
<title>Node1</title>
<g id="a_Node000001"><a xlink:title="Gráfico de linha: evolução mensal (total).">
<polygon fill="#999999" stroke="#666666" points="83,-56 0,-56 0,-37 83,-37 83,-56"/>
<text text-anchor="middle" x="41.5" y="-44" font-family="Helvetica,sans-Serif" font-size="10.00">app.graf_mes</text>
</a>
</g>
</g>
<!-- Node2 -->
<g id="Node000002" class="node">
<title>Node2</title>
<g id="a_Node000002"><a xlink:href="namespaceapp.html#a9b29ad1b664e81ea36570c3e5aa63d56" target="_top" xlink:title=" ">
<polygon fill="white" stroke="#666666" points="231,-56 119,-56 119,-37 231,-37 231,-56"/>
<text text-anchor="middle" x="175" y="-44" font-family="Helvetica,sans-Serif" font-size="10.00">app.dados_filtrados</text>
</a>
</g>
</g>
<!-- Node1&#45;&gt;Node2 -->
<g id="edge1_Node000001_Node000002" class="edge">
<title>Node1&#45;&gt;Node2</title>
<g id="a_edge1_Node000001_Node000002"><a xlink:title=" ">
<path fill="none" stroke="#63b8ff" d="M83.03,-46.5C91.16,-46.5 99.91,-46.5 108.64,-46.5"/>
<polygon fill="#63b8ff" stroke="#63b8ff" points="108.85,-50 118.85,-46.5 108.85,-43 108.85,-50"/>
</a>
</g>
</g>
<!-- Node3 -->
<g id="Node000003" class="node">
<title>Node3</title>
<g id="a_Node000003"><a xlink:href="namespaceapp.html#a6c0d0336cb013fd4aef718bf19d58dcb" target="_top" xlink:title=" ">
<polygon fill="white" stroke="#666666" points="334,-56 267,-56 267,-37 334,-37 334,-56"/>
<text text-anchor="middle" x="300.5" y="-44" font-family="Helvetica,sans-Serif" font-size="10.00">app.dados</text>
</a>
</g>
</g>
<!-- Node2&#45;&gt;Node3 -->
<g id="edge2_Node000002_Node000003" class="edge">
<title>Node2&#45;&gt;Node3</title>
<g id="a_edge2_Node000002_Node000003"><a xlink:title=" ">
<path fill="none" stroke="#63b8ff" d="M231.25,-46.5C239.83,-46.5 248.58,-46.5 256.82,-46.5"/>
<polygon fill="#63b8ff" stroke="#63b8ff" points="256.95,-50 266.95,-46.5 256.95,-43 256.95,-50"/>
</a>
</g>
</g>
<!-- Node4 -->
<g id="Node000004" class="node">
<title>Node4</title>
<g id="a_Node000004"><a xlink:href="namespaceapp.html#a8d16aaf8c5500c7a11a7d697c38de731" target="_top" xlink:title=" ">
<polygon fill="white" stroke="#666666" points="497,-93 370,-93 370,-74 497,-74 497,-93"/>
<text text-anchor="middle" x="433.5" y="-81" font-family="Helvetica,sans-Serif" font-size="10.00">app.aplicar_categorias</text>
</a>
</g>
</g>
<!-- Node3&#45;&gt;Node4 -->
<g id="edge3_Node000003_Node000004" class="edge">
<title>Node3&#45;&gt;Node4</title>
<g id="a_edge3_Node000003_Node000004"><a xlink:title=" ">
<path fill="none" stroke="#63b8ff" d="M334.22,-55.74C350.84,-60.44 371.27,-66.2 389.18,-71.26"/>
<polygon fill="#63b8ff" stroke="#63b8ff" points="388.26,-74.64 398.83,-73.99 390.16,-67.9 388.26,-74.64"/>
</a>
</g>
</g>
<!-- Node5 -->
<g id="Node000005" class="node">
<title>Node5</title>
<g id="a_Node000005"><a xlink:href="namespaceapp.html#a18e46ef6e58b9299bcc7c7d3d63368b1" target="_top" xlink:title=" ">
<polygon fill="white" stroke="#666666" points="485,-56 382,-56 382,-37 485,-37 485,-56"/>
<text text-anchor="middle" x="433.5" y="-44" font-family="Helvetica,sans-Serif" font-size="10.00">app.dados_brutos</text>
</a>
</g>
</g>
<!-- Node3&#45;&gt;Node5 -->
<g id="edge4_Node000003_Node000005" class="edge">
<title>Node3&#45;&gt;Node5</title>
<g id="a_edge4_Node000003_Node000005"><a xlink:title=" ">
<path fill="none" stroke="#63b8ff" d="M334.22,-46.5C345.58,-46.5 358.72,-46.5 371.61,-46.5"/>
<polygon fill="#63b8ff" stroke="#63b8ff" points="371.86,-50 381.86,-46.5 371.86,-43 371.86,-50"/>
</a>
</g>
</g>
<!-- Node8 -->
<g id="Node000008" class="node">
<title>Node8</title>
<g id="a_Node000008"><a xlink:href="namespaceapp.html#aceebba1402c6a66730e82c939dbd42d1" target="_top" xlink:title=" ">
<polygon fill="white" stroke="#666666" points="496,-19 371,-19 371,0 496,0 496,-19"/>
<text text-anchor="middle" x="433.5" y="-7" font-family="Helvetica,sans-Serif" font-size="10.00">app.regras_categorias</text>
</a>
</g>
</g>
<!-- Node3&#45;&gt;Node8 -->
<g id="edge7_Node000003_Node000008" class="edge">
<title>Node3&#45;&gt;Node8</title>
<g id="a_edge7_Node000003_Node000008"><a xlink:title=" ">
<path fill="none" stroke="#63b8ff" d="M334.22,-37.26C350.84,-32.56 371.27,-26.8 389.18,-21.74"/>
<polygon fill="#63b8ff" stroke="#63b8ff" points="390.16,-25.1 398.83,-19.01 388.26,-18.36 390.16,-25.1"/>
</a>
</g>
</g>
<!-- Node6 -->
<g id="Node000006" class="node">
<title>Node6</title>
<g id="a_Node000006"><a xlink:href="namespaceapp.html#addaec30611cceb35e3d34c83d2d2200d" target="_top" xlink:title="Lê um ficheiro PS2 e devolve um DataFrame com linhas de detalhe (Tipo 2).">
<polygon fill="white" stroke="#666666" points="640,-56 533,-56 533,-37 640,-37 640,-56"/>
<text text-anchor="middle" x="586.5" y="-44" font-family="Helvetica,sans-Serif" font-size="10.00">app.parse_ps2_file</text>
</a>
</g>
</g>
<!-- Node5&#45;&gt;Node6 -->
<g id="edge5_Node000005_Node000006" class="edge">
<title>Node5&#45;&gt;Node6</title>
<g id="a_edge5_Node000005_Node000006"><a xlink:title=" ">
<path fill="none" stroke="#63b8ff" d="M485.2,-46.5C497.18,-46.5 510.1,-46.5 522.55,-46.5"/>
<polygon fill="#63b8ff" stroke="#63b8ff" points="522.87,-50 532.87,-46.5 522.87,-43 522.87,-50"/>
</a>
</g>
</g>
<!-- Node7 -->
<g id="Node000007" class="node">
<title>Node7</title>
<g id="a_Node000007"><a xlink:href="namespaceapp.html#a979467ec3d7015ad0fdff74605b5cf7a" target="_top" xlink:title="Tenta ler o ficheiro com várias codificações.">
<polygon fill="white" stroke="#666666" points="786,-61.5 676,-61.5 676,-31.5 786,-31.5 786,-61.5"/>
<text text-anchor="start" x="684" y="-49.5" font-family="Helvetica,sans-Serif" font-size="10.00">app.read_text_with</text>
<text text-anchor="middle" x="731" y="-38.5" font-family="Helvetica,sans-Serif" font-size="10.00">_fallback</text>
</a>
</g>
</g>
<!-- Node6&#45;&gt;Node7 -->
<g id="edge6_Node000006_Node000007" class="edge">
<title>Node6&#45;&gt;Node7</title>
<g id="a_edge6_Node000006_Node000007"><a xlink:title=" ">
<path fill="none" stroke="#63b8ff" d="M640.16,-46.5C648.39,-46.5 656.97,-46.5 665.43,-46.5"/>
<polygon fill="#63b8ff" stroke="#63b8ff" points="665.65,-50 675.65,-46.5 665.65,-43 665.65,-50"/>
</a>
</g>
</g>
</g>
</svg>
